<mxfile host="Electron" agent="Mozilla/5.0 (Macintosh; Intel Mac OS X 10_15_7) AppleWebKit/537.36 (KHTML, like Gecko) draw.io/24.7.5 Chrome/126.0.6478.183 Electron/31.3.0 Safari/537.36" version="24.7.5">
  <diagram name="Page-1" id="my7__UVr4Ozn_kfOpccB">
    <mxGraphModel dx="1026" dy="659" grid="1" gridSize="10" guides="1" tooltips="1" connect="1" arrows="1" fold="1" page="1" pageScale="1" pageWidth="827" pageHeight="1169" math="0" shadow="0">
      <root>
        <mxCell id="0" />
        <mxCell id="1" parent="0" />
        <mxCell id="gbFMJtvaQHx5nxWNhSaE-1" value="" style="shape=mxgraph.signs.transportation.airplane_3;html=1;pointerEvents=1;fillColor=#000000;strokeColor=none;verticalLabelPosition=bottom;verticalAlign=top;align=center;sketch=0;" vertex="1" parent="1">
          <mxGeometry x="350" y="290" width="83" height="80" as="geometry" />
        </mxCell>
        <mxCell id="gbFMJtvaQHx5nxWNhSaE-2" value="" style="shape=mxgraph.signs.transportation.airplane_3;html=1;pointerEvents=1;fillColor=#000000;strokeColor=none;verticalLabelPosition=bottom;verticalAlign=top;align=center;sketch=0;" vertex="1" parent="1">
          <mxGeometry x="260" y="150" width="83" height="80" as="geometry" />
        </mxCell>
        <mxCell id="gbFMJtvaQHx5nxWNhSaE-3" value="" style="shape=mxgraph.signs.transportation.airplane_3;html=1;pointerEvents=1;fillColor=#000000;strokeColor=none;verticalLabelPosition=bottom;verticalAlign=top;align=center;sketch=0;" vertex="1" parent="1">
          <mxGeometry x="590" y="260" width="83" height="80" as="geometry" />
        </mxCell>
        <mxCell id="gbFMJtvaQHx5nxWNhSaE-4" value="" style="shape=mxgraph.signs.transportation.airplane_3;html=1;pointerEvents=1;fillColor=#000000;strokeColor=none;verticalLabelPosition=bottom;verticalAlign=top;align=center;sketch=0;" vertex="1" parent="1">
          <mxGeometry x="433" y="50" width="83" height="80" as="geometry" />
        </mxCell>
        <mxCell id="gbFMJtvaQHx5nxWNhSaE-5" value="" style="shape=mxgraph.signs.transportation.airplane_3;html=1;pointerEvents=1;fillColor=#000000;strokeColor=none;verticalLabelPosition=bottom;verticalAlign=top;align=center;sketch=0;" vertex="1" parent="1">
          <mxGeometry x="90" y="60" width="83" height="80" as="geometry" />
        </mxCell>
        <mxCell id="gbFMJtvaQHx5nxWNhSaE-6" value="" style="shape=mxgraph.signs.transportation.airplane_3;html=1;pointerEvents=1;fillColor=#000000;strokeColor=none;verticalLabelPosition=bottom;verticalAlign=top;align=center;sketch=0;" vertex="1" parent="1">
          <mxGeometry x="110" y="460" width="83" height="80" as="geometry" />
        </mxCell>
        <mxCell id="gbFMJtvaQHx5nxWNhSaE-7" value="" style="shape=mxgraph.signs.transportation.airplane_3;html=1;pointerEvents=1;fillColor=#000000;strokeColor=none;verticalLabelPosition=bottom;verticalAlign=top;align=center;sketch=0;" vertex="1" parent="1">
          <mxGeometry x="690" y="460" width="83" height="80" as="geometry" />
        </mxCell>
        <mxCell id="gbFMJtvaQHx5nxWNhSaE-8" value="" style="endArrow=classic;html=1;rounded=0;entryX=0.651;entryY=-0.012;entryDx=0;entryDy=0;entryPerimeter=0;exitX=-0.036;exitY=0.9;exitDx=0;exitDy=0;exitPerimeter=0;strokeWidth=3;" edge="1" parent="1" source="gbFMJtvaQHx5nxWNhSaE-1" target="gbFMJtvaQHx5nxWNhSaE-6">
          <mxGeometry width="50" height="50" relative="1" as="geometry">
            <mxPoint x="390" y="360" as="sourcePoint" />
            <mxPoint x="440" y="310" as="targetPoint" />
          </mxGeometry>
        </mxCell>
        <mxCell id="gbFMJtvaQHx5nxWNhSaE-9" value="" style="endArrow=classic;html=1;rounded=0;entryX=-0.036;entryY=0.663;entryDx=0;entryDy=0;entryPerimeter=0;exitX=1.048;exitY=0.65;exitDx=0;exitDy=0;exitPerimeter=0;strokeWidth=3;" edge="1" parent="1" source="gbFMJtvaQHx5nxWNhSaE-1" target="gbFMJtvaQHx5nxWNhSaE-3">
          <mxGeometry width="50" height="50" relative="1" as="geometry">
            <mxPoint x="361" y="378" as="sourcePoint" />
            <mxPoint x="203" y="466" as="targetPoint" />
          </mxGeometry>
        </mxCell>
        <mxCell id="gbFMJtvaQHx5nxWNhSaE-10" value="" style="endArrow=classic;html=1;rounded=0;entryX=0.795;entryY=1;entryDx=0;entryDy=0;entryPerimeter=0;exitX=0.398;exitY=0;exitDx=0;exitDy=0;exitPerimeter=0;strokeWidth=3;" edge="1" parent="1" source="gbFMJtvaQHx5nxWNhSaE-1" target="gbFMJtvaQHx5nxWNhSaE-2">
          <mxGeometry width="50" height="50" relative="1" as="geometry">
            <mxPoint x="444" y="331" as="sourcePoint" />
            <mxPoint x="599" y="312" as="targetPoint" />
          </mxGeometry>
        </mxCell>
        <mxCell id="gbFMJtvaQHx5nxWNhSaE-11" value="" style="endArrow=classic;html=1;rounded=0;entryX=0;entryY=0.78;entryDx=0;entryDy=0;entryPerimeter=0;exitX=1;exitY=0.563;exitDx=0;exitDy=0;exitPerimeter=0;strokeWidth=3;" edge="1" parent="1" source="gbFMJtvaQHx5nxWNhSaE-2" target="gbFMJtvaQHx5nxWNhSaE-4">
          <mxGeometry width="50" height="50" relative="1" as="geometry">
            <mxPoint x="393" y="300" as="sourcePoint" />
            <mxPoint x="336" y="240" as="targetPoint" />
          </mxGeometry>
        </mxCell>
        <mxCell id="gbFMJtvaQHx5nxWNhSaE-12" value="" style="endArrow=classic;html=1;rounded=0;entryX=0.783;entryY=1.025;entryDx=0;entryDy=0;entryPerimeter=0;exitX=-0.048;exitY=0.6;exitDx=0;exitDy=0;exitPerimeter=0;strokeWidth=3;" edge="1" parent="1" source="gbFMJtvaQHx5nxWNhSaE-2" target="gbFMJtvaQHx5nxWNhSaE-5">
          <mxGeometry width="50" height="50" relative="1" as="geometry">
            <mxPoint x="322" y="160" as="sourcePoint" />
            <mxPoint x="443" y="122" as="targetPoint" />
          </mxGeometry>
        </mxCell>
        <mxCell id="gbFMJtvaQHx5nxWNhSaE-13" value="" style="endArrow=classic;html=1;rounded=0;entryX=0.361;entryY=0.013;entryDx=0;entryDy=0;entryPerimeter=0;exitX=0.723;exitY=1;exitDx=0;exitDy=0;exitPerimeter=0;strokeWidth=3;" edge="1" parent="1" source="gbFMJtvaQHx5nxWNhSaE-3" target="gbFMJtvaQHx5nxWNhSaE-7">
          <mxGeometry width="50" height="50" relative="1" as="geometry">
            <mxPoint x="447" y="352" as="sourcePoint" />
            <mxPoint x="597" y="323" as="targetPoint" />
          </mxGeometry>
        </mxCell>
      </root>
    </mxGraphModel>
  </diagram>
</mxfile>
